<svg width="1181" height="353" viewBox="0 0 1181 353" fill="none" xmlns="http://www.w3.org/2000/svg">
<path d="M7.5 20C7.5 13.0964 13.0964 7.5 20 7.5H333C339.904 7.5 345.5 13.0964 345.5 20V333C345.5 339.904 339.904 345.5 333 345.5H20C13.0964 345.5 7.5 339.904 7.5 333V20Z" fill="#DEE3EA" stroke="#434343" stroke-width="15"/>
<path d="M176.935 304.52C156.402 304.52 139.682 298.067 126.775 285.16C114.162 272.253 106.975 254.947 105.215 233.24L144.375 221.36C146.722 237.787 150.682 249.96 156.255 257.88C162.122 265.8 170.335 269.76 180.895 269.76C189.108 269.76 195.415 267.413 199.815 262.72C204.508 257.733 206.855 251.133 206.855 242.92C206.855 235.587 205.242 228.987 202.015 223.12C198.788 217.253 193.508 211.24 186.175 205.08L142.615 167.68C132.642 159.173 124.868 150.227 119.295 140.84C114.015 131.16 111.375 119.427 111.375 105.64C111.375 85.9866 117.242 70.7333 128.975 59.88C140.708 48.7333 156.695 43.16 176.935 43.16C196.295 43.16 211.402 49.4666 222.255 62.08C233.402 74.4 239.855 90.3866 241.615 110.04L209.935 121.92C207.882 107.547 204.508 96.6933 199.815 89.36C195.122 81.7333 188.082 77.92 178.695 77.92C171.068 77.92 164.908 80.4133 160.215 85.4C155.815 90.3866 153.615 96.5466 153.615 103.88C153.615 113.267 157.868 121.773 166.375 129.4L211.255 170.76C222.695 181.32 231.495 191.733 237.655 202C244.108 212.267 247.335 224.733 247.335 239.4C247.335 260.52 241.028 276.653 228.415 287.8C215.802 298.947 198.642 304.52 176.935 304.52Z" fill="#0B0E11"/>
<path d="M486.871 289.662C538.434 289.662 569.488 264.613 569.488 225.209V225.062C569.488 192.104 550.299 174.232 506.354 165.15L483.502 160.463C458.014 155.189 446.441 146.4 446.441 131.459V131.312C446.441 114.467 461.822 102.895 486.578 102.748C510.309 102.748 526.568 113.734 529.059 132.191L529.352 133.949H565.533L565.387 131.459C563.189 95.2773 533.014 70.9609 486.871 70.9609C441.314 70.9609 408.648 96.1562 408.502 133.363V133.51C408.502 165.004 429.01 184.34 470.611 192.982L493.316 197.67C520.562 203.383 531.549 211.879 531.549 227.699V227.846C531.549 246.01 514.85 257.875 488.189 257.875C461.676 257.875 443.072 246.596 440.289 228.432L439.996 226.674H403.814L403.961 228.871C406.451 266.811 438.385 289.662 486.871 289.662ZM594.098 337.27H630.572V259.779H631.305C640.094 277.943 657.818 289.076 679.938 289.076C718.902 289.076 743.805 258.314 743.805 208.51V208.363C743.805 158.266 718.902 127.504 679.498 127.504C657.232 127.504 640.24 138.93 631.305 157.533H630.572V130.727H594.098V337.27ZM668.658 258.314C646.1 258.314 630.279 238.832 630.279 208.51V208.363C630.279 177.895 646.1 158.266 668.658 158.266C691.949 158.266 706.598 177.309 706.598 208.363V208.51C706.598 239.125 691.949 258.314 668.658 258.314ZM813.092 288.637C833.6 288.637 850.885 278.383 859.82 262.123H860.699V286H897.174V179.213C897.174 148.012 872.125 127.504 833.307 127.504C793.902 127.504 770.025 148.158 767.828 175.697L767.682 177.455H801.52L801.812 176.137C804.156 164.711 814.703 156.654 831.988 156.654C850.445 156.654 860.699 166.176 860.699 181.85V192.543L820.123 195.033C782.477 197.377 761.09 213.93 761.09 241.469V241.762C761.09 269.447 782.037 288.637 813.092 288.637ZM797.418 240.297V240.15C797.418 227.846 807.232 220.082 825.25 218.91L860.699 216.713V228.432C860.699 246.889 844.879 260.805 823.932 260.805C807.965 260.805 797.418 253.041 797.418 240.297ZM926.617 286H963.092V190.932C963.092 172.035 975.396 158.266 992.975 158.266C1009.97 158.266 1020.51 169.105 1020.51 186.537V286H1055.96V190.053C1055.96 171.303 1067.97 158.266 1085.55 158.266C1103.42 158.266 1113.38 169.252 1113.38 188.441V286H1149.86V179.359C1149.86 148.305 1129.79 127.504 1099.18 127.504C1076.76 127.504 1058.31 139.516 1050.84 158.852H1049.96C1044.24 138.93 1028.57 127.504 1006.89 127.504C986.383 127.504 970.416 138.637 963.824 155.629H963.092V130.727H926.617V286Z" fill="black"/>
</svg>
