<?xml version="1.0" standalone="no"?>
<!DOCTYPE svg PUBLIC "-//W3C//DTD SVG 20010904//EN"
 "http://www.w3.org/TR/2001/REC-SVG-20010904/DTD/svg10.dtd">
<svg version="1.0" xmlns="http://www.w3.org/2000/svg"
 width="353.000000pt" height="353.000000pt" viewBox="0 0 353.000000 353.000000"
 preserveAspectRatio="xMidYMid meet">
<metadata>
Created by potrace 1.14, written by Peter Selinger 2001-2017
</metadata>
<g transform="translate(0.000000,353.000000) scale(0.100000,-0.100000)"
fill="#000000" stroke="none">
<path d="M116 3510 c-50 -25 -93 -74 -106 -119 -15 -55 -14 -3208 2 -3252 17
-52 55 -95 101 -118 42 -21 44 -21 1652 -20 1355 1 1615 3 1642 15 44 19 101
78 112 117 15 51 14 3210 -1 3259 -15 52 -74 111 -125 126 -31 9 -417 12
-1639 12 -1563 -1 -1600 -1 -1638 -20z"/>
</g>
</svg>
